                          WARNING!!! RUSSIAN AUDIO ONLY!!!!!!


An exploration of how the actions of individual lives impact one another in the past, present and future, as one soul is shaped from a killer into a hero, and an act of kindness ripples across centuries to inspire a revolution. 

 Directors: Tom Tykwer, Andy Wachowski 
 Writers: David Mitchell (novel), Lana Wachowski (written for the screen by)
 Stars: Tom Hanks, Halle Berry and Hugh Grant 

MediaInfo 0.7.61
General
Complete name                            : K:tempOblachny.atlas.2012.D.DVDRip.2800MB.avi
Format                                   : AVI
Format/Info                              : Audio Video Interleave
Format profile                           : OpenDML
File size                                : 2.74 GiB
Duration                                 : 2h 45mn
Overall bit rate                         : 2 376 Kbps
Writing application                      : VirtualDubMod 1.5.10.2 (build 2542/release)
Writing library                          : VirtualDubMod build 2542/release

Video
ID                                       : 0
Format                                   : MPEG-4 Visual
Format profile                           : Advanced Simple@L5
Format settings, BVOP                    : 2
Format settings, QPel                    : No
Format settings, GMC                     : No warppoints
Format settings, Matrix                  : Default (MPEG)
Codec ID                                 : XVID
Codec ID/Hint                            : XviD
Duration                                 : 2h 45mn
Bit rate                                 : 1 917 Kbps
Width                                    : 720 pixels
Height                                   : 304 pixels
Display aspect ratio                     : 2.35:1
Frame rate                               : 25.000 fps
Color space                              : YUV
Chroma subsampling                       : 4:2:0
Bit depth                                : 8 bits
Scan type                                : Interlaced
Scan order                               : Bottom Field First
Compression mode                         : Lossy
Bits/(Pixel*Frame)                       : 0.350
Stream size                              : 2.21 GiB (81%)
Writing library                          : XviD 1.2.1 (UTC 2008-12-04)

Audio
ID                                       : 1
Format                                   : AC-3
Format/Info                              : Audio Coding 3
Mode extension                           : CM (complete main)
Format settings, Endianness              : Big
Codec ID                                 : 2000
Duration                                 : 2h 45mn
Bit rate mode                            : Constant
Bit rate                                 : 448 Kbps
Channel(s)                               : 6 channels
Channel positions                        : Front: L C R, Side: L R, LFE
Sampling rate                            : 48.0 KHz
Bit depth                                : 16 bits
Compression mode                         : Lossy
Stream size                              : 529 MiB (19%)
Alignment                                : Split accross interleaves
Interleave, duration                     : 40 ms (1.00 video frame)
Interleave, preload duration             : 500 ms


Screenshots: 
http://img717.imageshack.us/img717/6294/grabkl.png 
http://img268.imageshack.us/img268/1138/grab2l.png 
http://img7.imageshack.us/img7/6533/grab3k.png 
http://img585.imageshack.us/img585/1303/grab4sk.png 
http://img707.imageshack.us/img707/1889/grab6s.png 
http://img827.imageshack.us/img827/6986/grab7l.png 
http://img833.imageshack.us/img833/363/grab8z.png
